<svg width="159" height="103" viewBox="0 0 159 103" fill="none" xmlns="http://www.w3.org/2000/svg">
<g clip-path="url(#clip0_27_7)">
<path d="M125.254 70.9637C113.298 70.9637 103.57 60.8472 103.57 48.4075C103.57 35.9678 113.298 25.8513 125.254 25.8513C137.211 25.8513 146.939 35.9678 146.939 48.4075C146.939 60.8472 137.211 70.9637 125.254 70.9637ZM125.254 36.9093C119.383 36.9093 114.608 42.07 114.608 48.4119C114.608 54.7538 119.383 59.9144 125.254 59.9144C131.126 59.9144 135.901 54.7538 135.901 48.4119C135.901 42.07 131.126 36.9093 125.254 36.9093Z" fill="#FBEDD3"/>
<path d="M91.1519 103C88.1051 103 85.6328 100.524 85.6328 97.4732V96.2135C82.8646 97.4993 79.6437 98.2142 76.0006 98.3449C68.0136 98.6326 63.1735 95.4943 60.5184 92.8094C54.2724 86.4937 54.2724 77.3448 54.3247 75.7277V53.9866C54.3247 50.9356 56.7969 48.4598 59.8438 48.4598C62.8906 48.4598 65.3628 50.9356 65.3628 53.9866V75.828C65.3628 75.9326 65.3628 75.9718 65.3585 76.0677C65.3106 77.7022 65.7589 82.4314 68.3922 85.0597C70.0157 86.6767 72.3705 87.409 75.6001 87.2913C79.1779 87.1606 81.8069 86.1886 83.413 84.3972C85.0931 82.5229 85.5284 79.9905 85.6285 78.5129V54.1871C85.6285 51.136 88.1007 48.6603 91.1476 48.6603C94.1944 48.6603 96.6666 51.136 96.6666 54.1871V76.6387C96.6928 77.0833 96.7232 77.8809 96.6666 78.9226V97.4645C96.6666 100.516 94.1944 102.991 91.1476 102.991L91.1519 103Z" fill="#FBEDD3"/>
<path d="M109.106 97.6868C106.059 97.6868 103.587 95.211 103.587 92.16V48.4075C103.587 45.3564 106.059 42.8807 109.106 42.8807C112.153 42.8807 114.625 45.3564 114.625 48.4075V92.16C114.625 95.211 112.153 97.6868 109.106 97.6868Z" fill="#FBEDD3"/>
<path d="M80.0659 48.4162C68.1354 48.4162 57.8851 38.8882 56.7534 26.2959C55.5564 12.9976 64.9798 1.24223 77.7546 0.0915331C83.9919 -0.470737 90.0768 1.54733 94.8777 5.7709C99.6003 9.92472 102.517 15.7305 103.091 22.1203C103.666 28.5101 101.829 34.7474 97.9245 39.6771C93.955 44.6896 88.3314 47.7624 82.0898 48.3247C81.4108 48.3857 80.7362 48.4162 80.0659 48.4162ZM79.7786 11.0362C79.4347 11.0362 79.0865 11.0536 78.7427 11.0841C72.0179 11.69 67.0777 18.0711 67.7306 25.3109C68.3487 32.1758 73.7764 37.3844 80.0746 37.3844C80.4141 37.3844 80.7579 37.367 81.1061 37.3365C84.3096 37.0488 87.2172 35.4448 89.2933 32.8209C91.4348 30.1185 92.4403 26.6664 92.1182 23.1097C91.8004 19.553 90.1943 16.3363 87.6089 14.0611C85.3717 12.091 82.6252 11.0362 79.7829 11.0362H79.7786Z" fill="#FBEDD3"/>
<path d="M118.765 21.2442C121.785 20.8432 124.85 20.8476 127.87 21.2442L126.887 21.1135C129.951 21.5275 132.945 22.3426 135.796 23.5412C135.5 23.4148 135.209 23.2928 134.913 23.1664C137.577 24.2997 140.088 25.7642 142.382 27.5294L141.633 26.9497C143.997 28.7804 146.112 30.9031 147.94 33.2698L147.361 32.5201C149.154 34.8607 150.656 37.4149 151.805 40.1304L151.431 39.2456C151.522 39.4591 151.609 39.6771 151.696 39.8907C151.81 40.3745 152.032 40.7929 152.358 41.1503C152.619 41.5557 152.967 41.8739 153.398 42.1049C154.19 42.5712 155.361 42.7674 156.249 42.4797C157.146 42.1877 158.008 41.6341 158.46 40.7755C158.913 39.9168 159.196 38.8271 158.835 37.9205C157.664 34.9828 156.236 32.1845 154.378 29.6172C152.519 27.05 150.478 24.7224 148.088 22.6957C142.991 18.3762 136.85 15.3382 130.251 14.1832C126.447 13.5163 122.595 13.3201 118.76 13.8301C118.251 13.8127 117.777 13.9173 117.333 14.1483C116.876 14.2965 116.475 14.5536 116.14 14.9154C115.496 15.5605 115.013 16.6153 115.056 17.535C115.1 18.4547 115.413 19.4877 116.14 20.1545C116.806 20.7691 117.812 21.3663 118.756 21.2399L118.765 21.2442Z" fill="#F2AC25"/>
<path d="M1.33194 74.5422C3.85209 76.7346 6.43752 78.8878 9.23188 80.7228C11.9523 82.5098 14.9207 83.9221 18.0111 84.942C24.0699 86.9426 30.6205 87.1257 36.8926 86.1886C40.2267 85.6917 43.5564 84.711 46.5031 83.046C47.304 82.5927 47.9612 81.7166 48.2049 80.8317C48.4487 79.9469 48.3399 78.7614 47.8306 77.9768C47.3214 77.1835 46.564 76.4905 45.6195 76.2726C44.675 76.0546 43.6565 76.1418 42.7686 76.6474C42.1374 77.0048 41.4846 77.3186 40.8143 77.602L41.6978 77.2271C39.3605 78.2035 36.8708 78.7788 34.3637 79.1188L35.3474 78.988C31.8523 79.45 28.2875 79.4544 24.7924 78.9924C25.1188 79.036 25.4496 79.0796 25.7761 79.1231C22.9077 78.7352 20.1133 77.9637 17.4496 76.8392L18.3331 77.214C15.3255 75.9326 12.5703 74.176 9.98923 72.1798C10.2373 72.3715 10.4898 72.5677 10.7379 72.7595C9.31023 71.6524 7.93046 70.4842 6.5681 69.2987C5.81946 68.6449 4.9707 68.2134 3.9522 68.2134C3.0425 68.2134 1.95871 68.6187 1.33629 69.2987C0.713871 69.9786 0.20897 70.9332 0.252496 71.9182C0.296022 72.9033 0.600703 73.8971 1.33629 74.5378L1.33194 74.5422Z" fill="#F2AC25"/>
<path d="M49.4715 11.1539C47.0558 8.70429 44.1744 6.96517 40.9883 5.71423C39.0862 4.96454 37.1189 4.43278 35.0905 4.17998C34.0155 4.04486 32.9317 3.99255 31.8522 3.89666C31.7913 3.8923 31.726 3.87051 31.6651 3.85743H30.3941C30.2505 3.87487 30.1112 3.90102 29.9676 3.90538C25.1144 4.09716 20.5268 5.33067 16.1829 7.47078C13.863 8.61275 11.7911 10.1252 9.93259 11.9254C6.68556 15.0723 4.41351 18.8426 2.82047 23.0487C1.87596 25.5419 1.18825 28.1091 0.766046 30.7418C0.552769 32.0712 0.387371 33.4093 0.239383 34.7474C-0.00871439 36.8439 -0.0304773 38.9623 0.0261063 41.0806C0.060927 42.362 0.117511 43.6478 0.248088 44.9249C0.692052 49.2618 1.81937 53.4156 3.78674 57.3167C5.13604 59.9972 6.84661 62.425 8.96632 64.5477C11.9435 67.5334 15.4517 69.6735 19.4299 71.0509C21.4104 71.7352 23.4343 72.2364 25.5105 72.5023C26.6857 72.6549 27.8696 72.7507 29.0492 72.8554C29.5366 72.8989 30.0241 72.8946 30.5116 72.9164C30.5726 72.9164 30.6379 72.9425 30.6988 72.9556H32.2309C32.4616 72.9382 32.6923 72.9164 32.923 72.9033C34.2026 72.8161 35.4823 72.7508 36.7576 72.6418C38.738 72.4674 40.6967 72.1275 42.6466 71.7657C44.9666 71.3342 46.7381 69.5689 47.1342 67.2327C47.1907 66.897 47.2038 66.5483 47.2038 66.2084C47.2038 58.9599 47.1907 51.7114 47.2125 44.4586C47.2212 41.6995 45.3714 39.6117 43.1385 39.0058C42.886 38.9361 42.6379 38.8969 42.3855 38.8664C42.0329 38.7923 41.663 38.753 41.2886 38.753H29.8936C26.9512 38.753 24.5616 41.1416 24.5616 44.0924C24.5616 47.0433 26.9469 49.4318 29.8936 49.4318H36.2135C36.2135 53.3546 36.2135 57.2774 36.2135 61.2002C36.2135 61.2787 36.2135 61.3615 36.2135 61.44C36.2222 61.5838 36.1656 61.6492 36.0133 61.6623C35.4039 61.7146 34.7946 61.8017 34.1852 61.8235C32.923 61.8715 31.6607 61.9281 30.4028 61.8976C27.8217 61.8366 25.2885 61.4487 22.8424 60.577C18.6987 59.0994 15.6693 56.3578 13.6628 52.4611C12.5659 50.3297 11.8695 48.0675 11.4516 45.7139C11.2036 44.3321 11.0947 42.9374 11.0599 41.5382C11.0469 40.9629 10.9946 40.3875 10.9946 39.8122C10.9903 38.1385 11.0817 36.4734 11.2732 34.8128C11.5387 32.5419 11.974 30.3103 12.6834 28.1353C13.3929 25.9647 14.3374 23.9161 15.6737 22.0549C17.5453 19.4441 19.9871 17.596 22.9991 16.4889C24.6487 15.883 26.3331 15.3949 28.0698 15.129C29.4931 14.911 30.9251 14.8282 32.3615 14.9459C35.5084 15.2074 38.3724 16.2274 40.8621 18.2062C41.1711 18.4503 41.4497 18.7293 41.7326 19.0039C42.6728 19.9148 43.787 20.4291 45.0928 20.5599C47.8741 20.8345 50.4073 18.9254 50.9557 16.284C51.3649 14.3183 50.8687 12.5922 49.4541 11.1582L49.4715 11.1539Z" fill="#FBEDD3"/>
<path d="M55.5782 38.2387C49.576 38.2387 45.9459 36.6173 44.762 33.4049C43.6608 30.4062 45.0797 27.0674 48.984 23.4846C51.9351 20.7735 56.3225 17.8924 61.6718 15.1508L64.588 20.8519C60.2833 23.0618 56.6663 25.3501 54.1375 27.4771C51.8219 29.4211 51.1124 30.6415 50.8948 31.1471C51.7349 31.5699 54.4073 32.1976 60.0483 31.5307C65.9156 30.8377 73.1539 28.9809 80.4271 26.3003C87.7046 23.6197 94.4163 20.3376 99.3348 17.0555C104.096 13.878 105.716 11.6551 106.064 10.8008C104.632 10.0119 98.7994 9.40604 87.8874 12.1259L86.3423 5.90601C94.8516 3.78769 109.529 1.31196 112.188 8.55173C113.589 12.3699 110.904 16.7155 104.205 21.4752C98.7602 25.3457 91.0997 29.1945 82.6382 32.3109C74.1768 35.4274 65.8546 37.4716 59.1995 38.0556C57.9068 38.169 56.6968 38.2256 55.5695 38.2256L55.5782 38.2387Z" fill="#F2AC25"/>
<path d="M57.5021 30.5151C57.6762 30.3931 57.785 30.3146 57.8111 30.2972C57.8198 30.2885 57.8198 30.2928 57.8111 30.2972C57.7632 30.3321 57.6544 30.4149 57.5064 30.5326C57.7414 31.4174 58.4727 28.3532 58.7991 29.1945C60.279 28.7411 61.4673 26.4267 62.9036 25.908C64.9102 25.1845 66.7121 30.0923 68.6838 29.286C68.1877 28.0525 67.8612 26.7187 67.735 25.3152C67.4172 21.7585 68.4183 18.3065 70.5598 15.6041C72.636 12.9802 75.5435 11.3805 78.747 11.0885C79.0909 11.058 79.4347 11.0405 79.7786 11.0405C84.3575 11.0405 88.4794 13.7996 90.6209 17.9447C91.3782 17.4696 92.1356 17.0032 92.8842 16.5194C94.0594 15.7566 95.2216 14.9808 96.3663 14.1744C96.9626 13.756 97.5502 13.3288 98.1335 12.893C98.2074 12.8363 98.2814 12.7797 98.3554 12.723C98.5992 12.5269 98.8473 12.3351 99.0867 12.1346C99.2956 11.9646 99.4915 11.7859 99.696 11.6115C95.178 4.02306 86.8211 -0.7279 77.7546 0.0915325C71.513 0.653802 65.8895 3.72667 61.9199 8.73916C58.0157 13.6732 56.1789 19.9061 56.7534 26.2959C56.884 27.7474 57.1408 29.1552 57.5021 30.5108V30.5151Z" fill="#FBEDD3"/>
</g>
<defs>
<clipPath id="clip0_27_7">
<rect width="159" height="103" fill="white"/>
</clipPath>
</defs>
</svg>
